<svg xmlns="http://www.w3.org/2000/svg" width="92" height="92" viewBox="0 0 92 92">
  <g id="saudavel" transform="translate(-510 -554)">
    <g id="Elipse_1" data-name="Elipse 1" transform="translate(510 554)" fill="none" stroke="#003559" stroke-width="2">
      <circle cx="46" cy="46" r="46" stroke="none"/>
      <circle cx="46" cy="46" r="45" fill="none"/>
    </g>
    <g id="União_1" data-name="União 1" transform="translate(530 573)" fill="none">
      <path d="M17.888,53V35.113H0V18.55H17.888V0H34.45V18.55H53V35.113H34.45V53Z" stroke="none"/>
      <path d="M 32.45016098022461 51.00009918212891 L 32.45016098022461 35.11259078979492 L 32.45016098022461 33.11259078979492 L 34.45016098022461 33.11259078979492 L 51.00009918212891 33.11259078979492 L 51.00009918212891 20.54994964599609 L 34.45016098022461 20.54994964599609 L 32.45016098022461 20.54994964599609 L 32.45016098022461 18.54994964599609 L 32.45016098022461 1.999999642372131 L 19.88751029968262 1.999999642372131 L 19.88751029968262 18.54994964599609 L 19.88751029968262 20.54994964599609 L 17.88751029968262 20.54994964599609 L 1.999999642372131 20.54994964599609 L 1.999999642372131 33.11259078979492 L 17.88751029968262 33.11259078979492 L 19.88751029968262 33.11259078979492 L 19.88751029968262 35.11259078979492 L 19.88751029968262 51.00009918212891 L 32.45016098022461 51.00009918212891 M 34.45016098022461 53.00009918212891 L 17.88751029968262 53.00009918212891 L 17.88751029968262 35.11259078979492 L -4.089355343239731e-07 35.11259078979492 L -4.089355343239731e-07 18.54994964599609 L 17.88751029968262 18.54994964599609 L 17.88751029968262 -4.089355343239731e-07 L 34.45016098022461 -4.089355343239731e-07 L 34.45016098022461 18.54994964599609 L 53.00009918212891 18.54994964599609 L 53.00009918212891 35.11259078979492 L 34.45016098022461 35.11259078979492 L 34.45016098022461 53.00009918212891 Z" stroke="none" fill="#003559"/>
    </g>
  </g>
</svg>
