<svg xmlns="http://www.w3.org/2000/svg" width="21.193" height="21.295" viewBox="0 0 21.193 21.295">
  <path id="whatsapp" d="M18.355,3.095A10.555,10.555,0,0,0,1.747,15.827L.25,21.3l5.594-1.467a10.541,10.541,0,0,0,5.043,1.284h0A10.557,10.557,0,0,0,18.355,3.095ZM10.891,19.33h0a8.76,8.76,0,0,1-4.464-1.223l-.32-.19-3.32.871.886-3.237-.209-.332a8.771,8.771,0,1,1,7.43,4.11ZM15.7,12.761c-.264-.132-1.56-.77-1.8-.858s-.417-.132-.593.132-.681.858-.835,1.034-.308.2-.571.066a7.2,7.2,0,0,1-2.12-1.309A7.953,7.953,0,0,1,8.314,10c-.154-.264,0-.393.116-.538a7.458,7.458,0,0,0,.659-.9A.485.485,0,0,0,9.066,8.1C9,7.966,8.473,6.668,8.254,6.14S7.822,5.7,7.66,5.688s-.329-.009-.505-.009a.968.968,0,0,0-.7.33,2.957,2.957,0,0,0-.923,2.2,5.129,5.129,0,0,0,1.077,2.728,11.753,11.753,0,0,0,4.5,3.981,15.092,15.092,0,0,0,1.5.556,3.615,3.615,0,0,0,1.661.1,2.716,2.716,0,0,0,1.78-1.254,2.2,2.2,0,0,0,.154-1.254c-.066-.11-.242-.176-.505-.308Zm0,0" transform="translate(-0.25)" fill="#f6f6f6" fill-rule="evenodd"/>
</svg>
